<svg id="Layer_1" data-name="Layer 1" xmlns="http://www.w3.org/2000/svg" viewBox="-6 -6 60 60">
  <defs>
    <style>
      .cls-1 {
        fill: #ffd54d;
      }
    </style>
  </defs>
  <polygon class="cls-1" points="30.67 34.62 38.46 9.57 13.02 18.87 22.21 21.58 29.08 30.62 30.67 34.62"/>
  <path class="cls-1" d="m17.03,21.86c2.23,0,4.78,1.21,6.81,3.24,3.46,3.46,4.01,7.74,2.34,9.41-.75.75-1.83.91-2.6.91-2.23,0-4.78-1.21-6.81-3.24-1.7-1.7-2.86-3.82-3.16-5.8-.14-.9-.22-2.56.83-3.61.75-.75,1.83-.91,2.6-.91m0-4c-2.1,0-4.02.68-5.43,2.08-3.51,3.51-2.47,10.26,2.34,15.06,2.89,2.89,6.47,4.42,9.64,4.42,2.1,0,4.02-.68,5.43-2.08,3.51-3.51,2.47-10.26-2.34-15.06-2.89-2.89-6.47-4.42-9.64-4.42h0Z"/>
</svg>