<svg id="Layer_1" data-name="Layer 1" xmlns="http://www.w3.org/2000/svg" viewBox="-6 -6 60 60">
  <defs>
    <style>
      .cls-1 {
        fill: #000;
        stroke-width: 0px;
      }

      .cls-2 {
        fill: none;
        stroke: #000;
        stroke-linecap: round;
        stroke-miterlimit: 10;
        stroke-width: 3px;
      }
    </style>
  </defs>
  <path class="cls-1" d="M15,29c2.21,0,4,1.79,4,4s-1.79,4-4,4-4-1.79-4-4,1.79-4,4-4M15,26c-3.87,0-7,3.13-7,7s3.13,7,7,7,7-3.13,7-7-3.13-7-7-7h0Z"/>
  <path class="cls-1" d="M32,29c2.21,0,4,1.79,4,4s-1.79,4-4,4-4-1.79-4-4,1.79-4,4-4M32,26c-3.87,0-7,3.13-7,7s3.13,7,7,7,7-3.13,7-7-3.13-7-7-7h0Z"/>
  <line class="cls-2" x1="27.84" y1="27.37" x2="15" y2="10"/>
  <g>
    <path class="cls-1" d="M32.89,8.79c-.67-.49-1.61-.35-2.1.31l-6.05,8.19,1.87,2.52,6.6-8.93c.49-.67.35-1.61-.31-2.1Z"/>
    <path class="cls-1" d="M22.57,20.24l-4.61,6.24c-.49.67-.35,1.61.31,2.1.27.2.58.29.89.29.46,0,.91-.21,1.21-.61l4.07-5.5-1.87-2.52Z"/>
  </g>
</svg>