<?xml version="1.0" encoding="UTF-8"?>
<svg id="Layer_1" data-name="Layer 1" xmlns="http://www.w3.org/2000/svg" version="1.1" xmlns:xlink="http://www.w3.org/1999/xlink" viewBox="0 0 60 60">
  <defs>
    <style>
      .cls-1 {
        fill: #000;
      }

      .cls-1, .cls-2 {
        stroke-width: 0px;
      }

      .cls-2 {
        fill: none;
      }

      .cls-3 {
        clip-path: url(#clippath);
      }
    </style>
    <clipPath id="clippath">
      <polygon class="cls-2" points="34 22 54 22 54 54 6 54 6 6 34 6 34 22"/>
    </clipPath>
  </defs>
  <polygon class="cls-1" points="44 20 36 20 36 12 44 20"/>
  <g class="cls-3">
    <path class="cls-1" d="M20,12c-2.2,0-4,1.8-4,4v28c0,2.2,1.8,4,4,4h20c2.2,0,4-1.8,4-4V12h-24ZM40,40h-2.1c-.4,1.7-2,3-3.9,3s-3.4-1.3-3.9-3h-10.1c-.6,0-1-.4-1-1s.4-1,1-1h10.1c.4-1.7,2-3,3.9-3s3.4,1.3,3.9,3h2.1c.6,0,1,.4,1,1s-.4,1-1,1ZM40,30h-10.1c-.4,1.7-2,3-3.9,3s-3.4-1.3-3.9-3h-2.1c-.6,0-1-.4-1-1s.4-1,1-1h2.1c.4-1.7,2-3,3.9-3s3.4,1.3,3.9,3h10.1c.6,0,1,.4,1,1s-.4,1-1,1Z"/>
  </g>
</svg>