<svg id="Layer_1" data-name="Layer 1" xmlns="http://www.w3.org/2000/svg" viewBox="-6 -6 60 60">
  <defs>
    <style>
      .cls-1 {
        fill: #000;
      }

      .cls-1, .cls-2, .cls-3 {
        stroke-width: 0px;
      }

      .cls-2 {
        fill: #0d8e10;
      }

      .cls-3 {
        fill: #fff;
      }
    </style>
  </defs>
  <g>
    <rect class="cls-2" x="7" y="7" width="34" height="34" rx="4" ry="4"/>
    <path class="cls-1" d="M37,8c1.65,0,3,1.35,3,3v26c0,1.65-1.35,3-3,3H11c-1.65,0-3-1.35-3-3V11c0-1.65,1.35-3,3-3h26M37,6H11c-2.76,0-5,2.24-5,5v26c0,2.76,2.24,5,5,5h26c2.76,0,5-2.24,5-5V11c0-2.76-2.24-5-5-5h0Z"/>
  </g>
  <path class="cls-1" d="M39.12,15.66c-6.96,2.19-8.63,5.55-8.95,5.66-.32.11-.49-.12-.5-.65.03-.64-.53-10.3-.53-10.3,0,0,0-1.61-1.02-1.73.82,1.22,1.02,12.21,1.02,12.21,0,0-.27-.12-.36-.11-.09.02-.46.23-.65.03-.2-.2-.96.14-1.14.36s0,.5,0,.68-.2.27-.56.03c-.36-.24-.18-.94-.18-.94,0,0,.29-.39-.11-.94-.39-.55-.82.06-.77.36.05.3.52.79.61,1.08.09.29-.11.3-.32.21-.21-.09-.71-.74-.71-.74,0,0-.96-.53-.89.51.49.4.8,2.2.8,2.2,0,0-.15.64-.68.68-.53.04-2.63,1.99-3.24,2.88-.61.89-2.89,2.98-2.89,2.98h-3.65c-.27,0-2.13.18-2.49.36-.36.18-3.19.55-4.13.67-.17.02-.44.03-.77.03v.96l5.72-.13s4.46-.61,3.34.3c-2.28,1.49-2.79,3.67-3.3,3.91-.51.24-1.24,1.84-1.38,2.65-.11.63-.6.99-1.04,1.33.48.16,1,.25,1.53.25h4.07c.62-.49,1.52-1.15,2.34-1.56,1.42-.71,3-1.86,3.52-2.37.53-.51.57.98-.74,1.47-.53.2-1.79,1.27-3.08,2.47h2.73c.61-.6,1.25-1.3,1.9-1.97,1.38-1.42,2.89-4.99,2.89-4.99,0,0,.64-.58,1.25.03.61.61-.03,2.67-.03,2.67,0,0-1.29,1.8,1.31,4.26h1.15c-.4-.42-.82-.88-1.22-1.37.18-.67.03-3.89-.21-6.29-.24-2.4-.48-3.81,1.33-4.11,1.8-.3,3.52.75,5.06,1.13,1.54.38,1.74-.24,1.78-.36.04-.12.26-.53.65-.77s.85-.06,1.34-.02c.49.04.43-.53.43-.53l-.99-.71-.2.59-1.72.08s-.95-.04-1.36.55c-.81-.38-2.21-.47-2.84-.55-.63-.08-.77-.28-1.34-.55-.57-.26-.81-1.19-.14-1.72,2.33-.34,1.42-2.43,1.42-2.43,0,0-.91-1.52-.68-1.87,3.44-3.55,8.63-5.33,8.63-5.33,0,0,.46-.17,0-.53Z"/>
  <g>
    <circle class="cls-3" cx="7" cy="24" r="3"/>
    <path class="cls-1" d="M7,22c1.1,0,2,.9,2,2s-.9,2-2,2-2-.9-2-2,.9-2,2-2M7,20c-2.21,0-4,1.79-4,4s1.79,4,4,4,4-1.79,4-4-1.79-4-4-4h0Z"/>
  </g>
  <g>
    <circle class="cls-3" cx="41" cy="24" r="3"/>
    <path class="cls-1" d="M41,22c1.1,0,2,.9,2,2s-.9,2-2,2-2-.9-2-2,.9-2,2-2M41,20c-2.21,0-4,1.79-4,4s1.79,4,4,4,4-1.79,4-4-1.79-4-4-4h0Z"/>
  </g>
</svg>