<svg id="Layer_1" data-name="Layer 1" xmlns="http://www.w3.org/2000/svg" viewBox="-6 -6 60 60">
  <defs>
    <style>
      .cls-1 {
        fill: #000;
        stroke-width: 0px;
      }
    </style>
  </defs>
  <path class="cls-1" d="M46,28.3v10.76c0,1.66-1.34,3-3,3h-1s-33,0-33,0c-1.66,0-3-1.34-3-3V9.06c0-1.66,1.34-3,3-3h30c1.66,0,3,1.34,3,3v12.76c0,.8.32,1.56.88,2.12l2.24,2.24c.56.56.88,1.33.88,2.12ZM24,12l-14,5,14,5,14-5-14-5ZM24,25.19l-8.58-3.07-5.42,1.93,14,5,14-5-5.42-1.93-8.58,3.07ZM24,32.24l-8.74-3.12-5.26,1.88,14,5,14-5-5.26-1.88-8.74,3.12Z"/>
</svg>