<?xml version="1.0" encoding="UTF-8"?>
<svg id="Layer_1" data-name="Layer 1" xmlns="http://www.w3.org/2000/svg" version="1.1" viewBox="0 0 60 60">
  <defs>
    <style>
      .cls-1 {
        fill: #000;
        stroke-width: 0px;
      }
    </style>
  </defs>
  <path class="cls-1" d="M42,12h-24c-3.3,0-6,2.7-6,6v24c0,3.3,2.7,6,6,6h24c3.3,0,6-2.7,6-6v-24c0-3.3-2.7-6-6-6ZM43,42h-5.1c-.4,1.7-2,3-3.9,3s-3.4-1.3-3.9-3h-13.1c-.6,0-1-.4-1-1s.4-1,1-1h13.1c.4-1.7,2-3,3.9-3s3.4,1.3,3.9,3h5.1c.6,0,1,.4,1,1s-.4,1-1,1ZM43,32h-15.1c-.4,1.7-2,3-3.9,3s-3.4-1.3-3.9-3h-3.1c-.6,0-1-.4-1-1s.4-1,1-1h3.1c.4-1.7,2-3,3.9-3s3.4,1.3,3.9,3h15.1c.6,0,1,.4,1,1s-.4,1-1,1ZM43,22h-5.1c-.4,1.7-2,3-3.9,3s-3.4-1.3-3.9-3h-13.1c-.6,0-1-.4-1-1s.4-1,1-1h13.1c.4-1.7,2-3,3.9-3s3.4,1.3,3.9,3h5.1c.6,0,1,.4,1,1s-.4,1-1,1Z"/>
</svg>