<svg id="Layer_1" data-name="Layer 1" xmlns="http://www.w3.org/2000/svg" viewBox="-6 -6 60 60">
  <defs>
    <style>
      .cls-1 {
        fill: #000;
        fill-rule: evenodd;
        stroke-width: 0px;
      }
    </style>
  </defs>
  <path class="cls-1" d="M35.52,27.32c-.25.87-.59,1.7-1.02,2.48l3.64,4.1-4.24,4.24-4.1-3.64c-.78.43-1.61.77-2.48,1.02l-.32,5.48h-6l-.32-5.48c-.87-.25-1.7-.59-2.48-1.02l-4.1,3.64-4.24-4.24,3.64-4.1c-.43-.78-.77-1.61-1.02-2.48l-5.48-.32v-6l5.48-.32c.25-.87.59-1.7,1.02-2.48l-3.64-4.1,4.24-4.24,4.1,3.64c.78-.43,1.61-.77,2.48-1.02l.32-5.48h6l.32,5.48c.87.25,1.7.59,2.48,1.02l4.1-3.64,4.24,4.24-3.64,4.1c.43.78.77,1.61,1.02,2.48l5.48.32v6l-5.48.32ZM24,19c-2.76,0-5,2.24-5,5s2.24,5,5,5,5-2.24,5-5-2.24-5-5-5Z"/>
</svg>