<svg id="Layer_1" data-name="Layer 1" xmlns="http://www.w3.org/2000/svg" viewBox="-6 -6 60 60">
  <defs>
    <style>
      .cls-1 {
        fill: #000;
        stroke-width: 0px;
      }
    </style>
  </defs>
  <path class="cls-1" d="M25.92,39.03c-2.26,0-4.4-.85-6.05-2.39l-7.56-7.09c-.94-.88-1.06-2.31-.26-3.19.42-.47,1.02-.73,1.64-.73.59,0,1.14.23,1.56.64l2.7,2.7c.09.09.24.15.37.15.28,0,.53-.25.53-.53v-13c0-1.07.81-1.95,1.8-1.96,1.29,0,1.53,1.16,1.56,1.85l.3,6.99c.01.27.23.48.5.48h.01c.27,0,.49-.23.49-.5v-11.65c0-1.01.82-1.83,1.83-1.83.15,0,.3.02.45.05.8.19,1.38.99,1.38,1.91v11.51c0,.27.22.49.49.5h.01c.27,0,.49-.21.5-.48l.5-10.09c0-.7.17-1.83,1.28-1.85h0c1.02,0,1.87.92,1.87,1.97v9.95c0,.27.21.49.48.5,0,0,.01,0,.02,0,.26,0,.48-.2.5-.47l.34-5.43c0-.92.39-1.86,1.49-1.86,1,0,1.83.9,1.83,1.96v13.04c0,4.88-3.97,8.84-8.84,8.84h-1.71Z"/>
</svg>