<?xml version="1.0" encoding="UTF-8"?>
<svg id="Layer_1" data-name="Layer 1" xmlns="http://www.w3.org/2000/svg" version="1.1" viewBox="0 0 60 60">
  <defs>
    <style>
      .cls-1 {
        fill: #000;
        stroke-width: 0px;
      }
    </style>
  </defs>
  <path class="cls-1" d="M40,12h-20c-4.4,0-8,3.6-8,8v20c0,4.4,3.6,8,8,8h20c4.4,0,8-3.6,8-8v-20c0-4.4-3.6-8-8-8ZM17.4,33.8c1.8.7,4.2,1.2,7.4,1.5.3,3.1.8,5.6,1.5,7.4-4.3-1.3-7.6-4.6-8.9-8.9ZM24.5,30c0,.6,0,1.4,0,2.4,0,0,0,0,0,0h0s0,0,0,0c-5.7-.5-7.8-1.7-7.8-2.4,0-5.9,3.9-11,9.4-12.6-1.5,3.5-1.7,9.2-1.7,12.6ZM30,43.2h0c-.7,0-1.9-2.1-2.5-7.8,1,0,1.9,0,2.5,0,3.4,0,9.1-.2,12.6-1.7-1.6,5.5-6.7,9.4-12.6,9.4ZM30,32.7c-.9,0-1.8,0-2.6,0,0-.9,0-1.8,0-2.6,0-8.5,1.6-13.2,2.7-13.2,7.3,0,13.2,5.9,13.2,13.2s-4.7,2.7-13.2,2.7Z"/>
</svg>