<svg id="Layer_1" data-name="Layer 1" xmlns="http://www.w3.org/2000/svg" viewBox="0 0 48 48">
  <defs>
    <style>
      .cls-1 {
        fill: #2383e2;
      }
    </style>
  </defs>
  <path class="cls-1" d="m6,20c5.13-.14,11.3,2.19,15.55,6.44,4.25,4.25,6.58,10.42,6.44,15.55l14-14v-.12c.1-5.1-2.22-11.21-6.44-15.43-4.22-4.22-10.33-6.55-15.43-6.44h-.12s-14,14-14,14Z"/>
  <path d="m6,25c3.97-.11,8.74,1.69,12.02,4.98,3.28,3.28,5.08,8.05,4.98,12.02h3c.12-4.66-1.99-10.28-5.86-14.14-3.86-3.86-9.48-5.98-14.14-5.86v3Z"/>
</svg>