<svg id="Layer_1" data-name="Layer 1" xmlns="http://www.w3.org/2000/svg" viewBox="0 0 48 48">
  <defs>
    <style>
      .cls-1, .cls-2, .cls-3 {
        fill: none;
        stroke: #000;
        stroke-miterlimit: 10;
        stroke-width: 2px;
      }

      .cls-4 {
        fill: #000;
      }

      .cls-4, .cls-5 {
        stroke-width: 0px;
      }

      .cls-2 {
        stroke-dasharray: 0 0 4.24 3.18;
      }

      .cls-5 {
        fill: #eec75b;
      }

      .cls-3 {
        stroke-dasharray: 0 0 4.24 3.18;
      }
    </style>
  </defs>
  <g>
    <line class="cls-1" x1="13" y1="35" x2="13" y2="33"/>
    <line class="cls-3" x1="13" y1="29.82" x2="13" y2="16.59"/>
    <path class="cls-1" d="M13,15v-2h2"/>
    <path class="cls-2" d="M18.18,13h13.23"/>
    <path class="cls-1" d="M33,13h2"/>
  </g>
  <rect class="cls-4" x="9" y="9" width="8" height="8" rx="4" ry="4"/>
  <rect class="cls-4" x="31" y="9" width="8" height="8" rx="4" ry="4"/>
  <rect class="cls-4" x="9" y="31" width="8" height="8" rx="4" ry="4"/>
  <g>
    <circle class="cls-5" cx="33" cy="33" r="3"/>
    <path class="cls-5" d="M33,26c-3.87,0-7,3.13-7,7s3.13,7,7,7,7-3.13,7-7-3.13-7-7-7ZM33,38c-2.76,0-5-2.24-5-5s2.24-5,5-5,5,2.24,5,5-2.24,5-5,5Z"/>
  </g>
</svg>