<svg id="Layer_1" data-name="Layer 1" xmlns="http://www.w3.org/2000/svg" viewBox="0 0 48 48"><defs><style>.cls-1{fill:#2383e2;}</style></defs><path d="M23.83,9H24a18.83,18.83,0,0,1,7.79,1.53l.08,0a5.69,5.69,0,0,1,1.8,1.27,1.28,1.28,0,0,1,.34.67c0,.26-.51,1-2.11,1.81A19.23,19.23,0,0,1,24,15.91a18.53,18.53,0,0,1-7.81-1.58c-1.61-.8-2.14-1.66-2.14-1.86s.54-1.08,2.16-1.9A17.69,17.69,0,0,1,23.83,9m0-3a20.74,20.74,0,0,0-9,1.89C12.43,9.09,11,10.77,11,12.45s1.4,3.37,3.81,4.57A21.44,21.44,0,0,0,24,18.91H24A22.27,22.27,0,0,0,33.19,17C35.6,15.85,37,14.23,37,12.48a4.11,4.11,0,0,0-1.06-2.59,8.72,8.72,0,0,0-2.74-2A21.83,21.83,0,0,0,24,6Z"/><path class="cls-1" d="M24,31c6.28,0,10.86-2.5,11.81-5-.15-.23-.29-.45-.45-.67a14.2,14.2,0,0,0-22.72,0c-.16.22-.3.44-.45.67C13.14,28.5,17.72,31,24,31Z"/><path class="cls-1" d="M36.94,28C34.85,31,29.85,33,24,33S13.15,31,11.06,28a14.16,14.16,0,0,0-1.25,5.77,5.26,5.26,0,0,0,1,3A10.14,10.14,0,0,0,14,39.61,20.28,20.28,0,0,0,24,42a20.28,20.28,0,0,0,10-2.39,10.14,10.14,0,0,0,3.21-2.79,5.26,5.26,0,0,0,1-3A14.16,14.16,0,0,0,36.94,28Z"/></svg>