<svg id="Layer_1" data-name="Layer 1" xmlns="http://www.w3.org/2000/svg" viewBox="0 0 48 48">
  <defs>
    <style>
      .cls-1 {
        fill: #000;
      }

      .cls-1, .cls-2 {
        stroke-width: 0px;
      }

      .cls-2 {
        fill: #2383e2;
      }
    </style>
  </defs>
  <path class="cls-1" d="M40,12v8c-11.05,0-20,8.95-20,20h-8c-2.21,0-4-1.79-4-4v-8c11.05,0,20-8.95,20-20h8c2.21,0,4,1.79,4,4Z"/>
  <path class="cls-2" d="M26,8c0,9.94-8.06,18-18,18v-14c0-2.21,1.79-4,4-4h14ZM20,14h-4v-4h-2v4h-4v2h4v4h2v-4h4v-2Z"/>
  <path class="cls-2" d="M40,22v14c0,2.21-1.79,4-4,4h-14c0-9.94,8.06-18,18-18ZM38,32h-10v2h10v-2Z"/>
</svg>