<svg id="Layer_1" data-name="Layer 1" xmlns="http://www.w3.org/2000/svg" viewBox="0 0 48 48">
  <path d="m13.93,13.3l-7.93,21.04h5.25l1.53-4.34h7.38l1.53,4.34h5.25l-7.93-21.04h-5.06Zm.47,12.06l1.98-5.62h.16l1.98,5.62h-4.12Z"/>
  <path d="m41.13,20.79c-.58-.93-1.39-1.66-2.44-2.17s-2.24-.77-3.57-.77c-1.44,0-2.7.28-3.78.85-1.08.57-2,1.42-2.74,2.56l3.22,2.21c.35-.55.77-.96,1.24-1.24s1-.41,1.58-.41c.78,0,1.4.19,1.86.56s.69.88.69,1.52v.29h-1.92c-1.51,0-2.81.25-3.91.76-1.1.51-1.94,1.21-2.52,2.1-.58.9-.87,1.9-.87,3.02,0,.96.23,1.79.69,2.49.46.7,1.07,1.23,1.84,1.6.76.36,1.61.55,2.53.55s1.78-.18,2.48-.55c.69-.36,1.2-.9,1.52-1.61h.16v1.78h4.79v-10.33c0-1.21-.29-2.28-.87-3.21Zm-3.93,8.16c0,.37-.11.7-.33.98-.22.28-.53.5-.92.65s-.84.23-1.36.23c-.59,0-1.02-.09-1.29-.27s-.41-.44-.41-.8c0-.55.28-.97.84-1.25.56-.28,1.41-.43,2.57-.43h.91v.88Z"/>
</svg>