<svg id="Layer_1" data-name="Layer 1" xmlns="http://www.w3.org/2000/svg" viewBox="0 0 48 48"><defs><style>.cls-1{fill:red;}</style></defs><path class="cls-1" d="M39.8,29.2a7.5,7.5,0,1,1-10.6,0A7.49,7.49,0,0,1,39.8,29.2Zm-2.47.35L34.5,32.38l-2.82-2.84-2.13,2.13,2.83,2.83-2.83,2.83,2.12,2.12,2.83-2.83,2.83,2.83,2.12-2.12L36.62,34.5l2.83-2.83Z"/><path d="M25,34.5a9.49,9.49,0,0,1,16.51-6.39,18.07,18.07,0,1,0-13.4,13.4A9.48,9.48,0,0,1,25,34.5ZM16.5,34A4.5,4.5,0,1,1,21,29.5,4.51,4.51,0,0,1,16.5,34Zm3-17.5A4.5,4.5,0,1,1,24,21,4.51,4.51,0,0,1,19.5,16.5Z"/></svg>